<?xml version="1.0" encoding="UTF-8"?>
<svg width="24px" height="24px" viewBox="0 0 24 24" version="1.1" xmlns="http://www.w3.org/2000/svg">
    <g stroke="none" stroke-width="1" fill="none" fill-rule="evenodd">
        <path d="M19,3 L5,3 C3.89,3 3,3.89 3,5 L3,19 C3,20.11 3.89,21 5,21 L19,21 C20.11,21 21,20.11 21,19 L21,5 C21,3.89 20.11,3 19,3 Z M19,19 L5,19 L5,5 L19,5 L19,19 Z" fill="currentColor"/>
        <path d="M15,7 L17,7 L17,9 L15,9 L15,7 Z M11,7 L13,7 L13,9 L11,9 L11,7 Z M7,7 L9,7 L9,9 L7,9 L7,7 Z M15,11 L17,11 L17,13 L15,13 L15,11 Z M11,11 L13,11 L13,13 L11,13 L11,11 Z M7,11 L9,11 L9,13 L7,13 L7,11 Z M15,15 L17,15 L17,17 L15,17 L15,15 Z M11,15 L13,15 L13,17 L11,17 L11,15 Z M7,15 L9,15 L9,17 L7,17 L7,15 Z" fill="currentColor"/>
    </g>
</svg>
